<svg xmlns="http://www.w3.org/2000/svg" xmlns:svg="http://www.w3.org/2000/svg" id="svg8" width="64" height="64" version="1.1" viewBox="0 0 16.933 16.933"><metadata id="metadata5"/><g id="layer2" transform="translate(0,-22.754167)"><path id="rect3707" fill="#222d32" fill-opacity="1" stroke="none" stroke-dasharray="none" stroke-dashoffset="0" stroke-linecap="butt" stroke-linejoin="miter" stroke-miterlimit="4" stroke-opacity="1" stroke-width=".868" d="M 0.89769247,22.754166 H 16.035641 c 0.497322,0 0.897693,0.400371 0.897693,0.897693 v 15.137948 c 0,0.497322 -0.400371,0.897693 -0.897693,0.897693 H 0.89769247 C 0.40037084,39.6875 0,39.287129 0,38.789807 V 23.651859 c 0,-0.497322 0.40037084,-0.897693 0.89769247,-0.897693 z" opacity="1" vector-effect="none"/></g><g id="layer1" transform="translate(0,-280.06666)"><g id="g3705" transform="matrix(0.42666667,0,0,0.42666667,1.2417775,169.0382)"><circle id="path1380" cx="-16.933" cy="-280.067" r="16.669" fill="#222d32" fill-opacity="1" stroke="none" stroke-dasharray="none" stroke-dashoffset="0" stroke-linecap="butt" stroke-linejoin="miter" stroke-miterlimit="4" stroke-opacity="1" stroke-width="8.926" opacity="1" transform="scale(-1)" vector-effect="none"/><circle id="path1380-3" cx="-16.933" cy="-280.067" r="16.138" fill="none" fill-opacity="1" stroke="#00dbde" stroke-dasharray="none" stroke-dashoffset="0" stroke-linecap="butt" stroke-linejoin="miter" stroke-miterlimit="4" stroke-opacity="1" stroke-width="1.591" opacity="1" transform="scale(-1)" vector-effect="none"/><g id="text1399" fill="#00dbde" fill-opacity=".992" stroke="none" stroke-width=".728" aria-label="N" font-family="DejaVu Sans" font-size="29.108" font-stretch="normal" font-style="normal" font-variant="normal" font-weight="normal" letter-spacing="0" transform="scale(1.0986301,0.91022447)" word-spacing="0" style="line-height:1.25;-inkscape-font-specification:'DejaVu Sans'"><path id="path817" fill="#00dbde" fill-opacity=".992" stroke-width=".728" d="m 7.4592894,297.07986 h 3.8658586 l 9.408817,17.75168 v -17.75168 h 2.785692 v 21.21958 h -3.865859 l -9.408817,-17.75168 v 17.75168 H 7.4592894 Z" font-family="DejaVu Sans" font-stretch="normal" font-style="normal" font-variant="normal" font-weight="normal" style="-inkscape-font-specification:'DejaVu Sans'"/></g></g></g></svg>